<svg width="727" height="1266" viewBox="0 0 727 1266" fill="none" xmlns="http://www.w3.org/2000/svg">
<path d="M47 334L423 334L423 1002L47 1002L47 334Z" fill="white"/>
<path d="M47 334L423 334L423 1002L47 1002L47 334Z" fill="white"/>
<path opacity="0.8" d="M387.043 369.035C387.043 369.035 237.91 184.517 52.8206 35.035C-132.269 -114.448 405.021 351.517 387.043 369.035ZM387.043 369.035C369.064 386.552 572.133 518.517 721.265 703.035" stroke="#F3BD32" stroke-width="10" stroke-linecap="round"/>
<path opacity="0.8" d="M339.4 824.489C339.4 824.489 548.311 746.245 673.622 1158.49C798.933 1570.73 381.2 579.245 339.4 824.489ZM339.4 824.489C297.599 1069.73 214.089 412.245 5.1773 490.489" stroke="#FFB700" stroke-width="10" stroke-linecap="round"/>
</svg>
